<svg xmlns="http://www.w3.org/2000/svg" width="800" height="500" viewBox="0 0 800 500" preserveAspectRatio="xMidYMid slice">
  <defs>
    <linearGradient id="g1" x1="0" x2="1" y1="0" y2="1">
      <stop offset="0" stop-color="#FDEEF6"/>
      <stop offset="1" stop-color="#FFF5F7"/>
    </linearGradient>
  </defs>
  <rect width="100%" height="100%" fill="url(#g1)" />
  <g transform="translate(80,60)">
    <path d="M60 260 C120 220 180 180 240 178 C300 176 360 208 420 218 C480 228 540 200 600 150 L620 145 L620 350 L40 350 L60 260 Z" fill="#F6DDE3" opacity="0.9"/>
    <g transform="translate(60,40) scale(.7)" fill="#D89BB4" opacity="0.95">
      <rect x="0" y="140" width="40" height="80" rx="8"/>
      <rect x="50" y="120" width="40" height="100" rx="8"/>
      <rect x="100" y="100" width="40" height="120" rx="8"/>
    </g>
    <g transform="translate(380,20) scale(.6)" fill="#D89BB4" opacity="0.6">
      <path d="M80 0 L120 40 L80 36 L92 76 L52 48 L84 36 Z"/>
    </g>
    <circle cx="80" cy="80" r="20" fill="#FDE0E9" opacity="0.9"/>
  </g>
  <text x="50" y="430" font-family="Georgia, serif" font-size="26" fill="#B16E99">Fairy Tale</text>
</svg>